<?xml version="1.0" encoding="UTF-8"?><svg id="a" xmlns="http://www.w3.org/2000/svg" viewBox="0 0 475.05 77.98"><defs><style>.b{fill:#fff;}</style></defs><path class="b" d="M20.81,22.66h5.34c1.99,0,3.63,1.64,3.63,3.63s-1.64,3.56-3.63,3.56h-5.34v28.34c0,1.99-1.57,3.56-3.56,3.56s-3.56-1.57-3.56-3.56V29.85h-3.97c-1.99,0-3.63-1.57-3.63-3.56s1.64-3.63,3.63-3.63h3.97v-5.41c0-3.77,3.01-6.85,6.85-6.85h4.93c1.99-.07,3.63,1.57,3.63,3.56s-1.64,3.56-3.63,3.56h-4.66v5.13Z"/><path class="b" d="M71.07,57.58c-1.78,1.78-4.18,2.74-6.64,2.74h-8.01c-2.46,0-4.86-.96-6.64-2.74l-2.74-2.74c-1.78-1.71-2.74-4.11-2.74-6.64v-13.42c0-2.46,.96-4.86,2.74-6.64l2.74-2.74c1.78-1.71,4.18-2.74,6.64-2.74h8.01c2.46,0,4.86,1.03,6.64,2.74l2.74,2.74c1.71,1.78,2.74,4.18,2.74,6.64v13.42c0,2.53-1.03,4.93-2.74,6.64l-2.74,2.74Zm-2.74-7.39c.68-.68,1.03-1.58,1.03-2.53v-12.32c0-.96-.34-1.85-1.03-2.46-.62-.68-1.3-1.37-1.99-1.99-.62-.68-1.51-1.03-2.46-1.03h-6.92c-.96,0-1.85,.34-2.46,1.03-.68,.62-1.37,1.3-1.99,1.99-.68,.62-1.03,1.51-1.03,2.46v12.32c0,.96,.34,1.85,1.03,2.53,.62,.62,1.3,1.3,1.99,1.92,.62,.68,1.51,1.03,2.46,1.03h6.92c.96,0,1.85-.34,2.46-1.03,.68-.62,1.37-1.3,1.99-1.92Z"/><path class="b" d="M112.55,22.59c1.92,0,3.63,1.64,3.63,3.56s-1.64,3.56-3.56,3.63c-.96,0-1.85,.34-2.53,.96l-8.97,8.22v18.76c0,1.99-1.57,3.56-3.56,3.56s-3.56-1.57-3.56-3.56V25.19c0-1.99,1.58-3.56,3.56-3.56s3.56,1.57,3.56,3.56v3.97l4.86-4.52c1.37-1.3,3.15-1.99,5-2.05h1.58Z"/><path class="b" d="M213.26,57.99c-.62,2.05-2.53,3.42-4.72,3.42-2.12-.07-4.04-1.51-4.59-3.63l-8.56-33.07-9.11,33.14c-.62,2.12-2.46,3.56-4.66,3.56s-4.04-1.44-4.66-3.49l-12.39-43.41c-.55-1.99,.55-3.97,2.53-4.59,1.92-.55,3.97,.62,4.52,2.53l9.93,34.71,9.31-33.96c.62-2.12,2.46-3.56,4.59-3.56s3.97,1.44,4.52,3.49l8.83,34.03,10.54-34.85c.62-1.92,2.67-3.01,4.59-2.46,1.99,.62,3.08,2.67,2.46,4.59l-13.15,43.54Z"/><path class="b" d="M264.95,22.66c3.77,0,6.85,3.08,6.85,6.85v8.42c0,3.77-3.08,6.91-6.85,6.91l-17.73-.07v2.88c0,.96,.34,1.85,1.03,2.46,.62,.68,1.3,1.37,1.92,1.99,.68,.62,1.58,1.03,2.53,1.03h11.91v-2.6c0-1.99,1.64-3.56,3.63-3.56s3.56,1.57,3.56,3.56v2.88c0,3.83-3.08,6.85-6.85,6.85h-13.83c-1.85,0-3.63-.68-4.93-1.99l-4.11-4.11c-1.3-1.3-2.05-3.15-2.05-5v-15.4c0-1.85,.75-3.63,2.05-4.93l4.11-4.11c1.3-1.3,3.08-2.05,4.93-2.05h13.83Zm-17.73,14.99h17.39v-7.87h-11.91c-.96,0-1.85,.41-2.53,1.03-.62,.68-1.3,1.37-1.92,1.99-.68,.68-1.03,1.57-1.03,2.46v2.4Z"/><path class="b" d="M305.96,22.66c2.46,0,4.86,.96,6.64,2.74l2.74,2.74c1.71,1.78,2.74,4.11,2.74,6.64v13.35c0,2.53-1.03,4.93-2.74,6.64l-2.74,2.74c-1.78,1.78-4.18,2.74-6.64,2.74h-12.26c-3.77,0-6.85-3.01-6.85-6.78V12.73c0-1.99,1.58-3.56,3.56-3.56s3.63,1.57,3.63,3.56v9.93h11.91Zm4.93,12.67c0-.96-.41-1.85-1.03-2.53-.62-.62-1.37-1.3-1.99-1.92-.62-.68-1.51-1.03-2.46-1.03h-11.37v23.21h11.37c.96,0,1.85-.34,2.46-1.03,.62-.62,1.37-1.3,1.99-1.92,.62-.69,1.03-1.58,1.03-2.53v-12.26Z"/><path class="b" d="M357.85,13.55l15.4,43.06c.69,1.92-.34,4.04-2.26,4.72-1.92,.68-3.97-.34-4.66-2.26l-2.74-7.6h-21.43l-2.67,7.67c-.69,1.92-2.81,2.94-4.72,2.26s-2.94-2.74-2.26-4.66l15.2-43.2c.75-2.12,2.81-3.56,5.07-3.56s4.31,1.44,5.07,3.56Zm3.08,30.54l-8.08-22.94-8.08,22.94h16.16Z"/><path class="b" d="M413.78,57.71c-1.71,1.78-4.11,2.74-6.57,2.74h-11.64l.07,12.73c0,1.99-1.64,3.63-3.63,3.63s-3.56-1.57-3.56-3.56l-.07-43.68c0-3.77,3.08-6.85,6.85-6.85l11.91,.07c2.46,0,4.86,.96,6.64,2.74l2.67,2.67c1.78,1.78,2.81,4.11,2.81,6.64v13.49c0,2.53-.96,4.93-2.74,6.64l-2.74,2.74Zm-7.19-4.45c.96,0,1.85-.34,2.53-1.03l1.92-1.92c.68-.68,1.03-1.58,1.03-2.46v-12.46c0-.96-.41-1.85-1.03-2.53-.62-.62-1.37-1.3-1.99-1.92-.62-.68-1.51-1.03-2.46-1.03h-11.02v23.35h11.02Z"/><path class="b" d="M461.16,57.71c-1.71,1.78-4.11,2.74-6.57,2.74h-11.64l.07,12.73c0,1.99-1.64,3.63-3.63,3.63s-3.56-1.57-3.56-3.56l-.07-43.68c0-3.77,3.08-6.85,6.85-6.85l11.91,.07c2.46,0,4.86,.96,6.64,2.74l2.67,2.67c1.78,1.78,2.81,4.11,2.81,6.64v13.49c0,2.53-.96,4.93-2.74,6.64l-2.74,2.74Zm-7.19-4.45c.96,0,1.85-.34,2.53-1.03l1.92-1.92c.68-.68,1.03-1.58,1.03-2.46v-12.46c0-.96-.41-1.85-1.03-2.53-.62-.62-1.37-1.3-1.99-1.92-.62-.68-1.51-1.03-2.46-1.03h-11.02v23.35h11.02Z"/></svg>