<?xml version="1.0" encoding="UTF-8"?><svg id="a" xmlns="http://www.w3.org/2000/svg" viewBox="0 0 1512.67 214.03"><defs><style>.b{fill:#fff;}</style></defs><path class="b" d="M40.78,112v47.35c0,5.45-4.51,10.15-10.15,10.15s-10.15-4.7-10.15-10.15V47.73c0-12.4,9.58-18.79,18.79-18.79h44.35c6.77-.19,13.34,2.44,18.23,7.33l7.52,7.7c4.89,4.7,7.52,11.27,7.52,18.04v16.72c0,6.76-2.63,13.34-7.52,18.04l-7.52,7.7c-4.89,4.89-11.46,7.52-18.23,7.52H40.78Zm47.92-60.13c-1.88-1.88-4.32-2.82-6.76-2.82H40.78v42.66h41.15c2.44,0,4.89-.94,6.76-2.82,1.69-1.69,3.57-3.38,5.26-5.07,1.69-1.88,2.82-4.32,2.82-6.95v-12.97c0-2.63-1.13-5.07-2.82-6.95-1.69-1.69-3.57-3.38-5.26-5.07Z"/><path class="b" d="M175.13,165.74c-10.33,0-18.79-8.46-18.79-18.79V36.46c0-5.64,4.51-10.15,10.15-10.15s10.15,4.51,10.15,10.15v108.8h50.17c5.45,0,9.96,4.7,9.96,10.15s-4.51,10.15-9.96,10.15l-51.68,.19Z"/><path class="b" d="M293.7,165.93c-10.33,0-18.79-8.46-18.79-18.79V47.92c0-10.52,8.46-18.79,18.79-18.79l52.62-.19c10.33,0,18.79,8.46,18.79,18.79v9.4c0,5.64-4.51,10.15-10.15,10.15s-10.15-4.51-10.15-10.15v-7.89h-49.61v34.95h53.93c5.64,0,10.15,4.51,10.15,10.15s-4.51,9.96-10.15,9.96h-53.93v41.34h49.61v-7.52c0-5.64,4.51-10.15,10.15-10.15s10.15,4.51,10.15,10.15v8.83c0,10.52-8.46,18.79-18.79,18.98h-52.62Z"/><path class="b" d="M429.75,158.97c0,5.64-4.51,10.15-10.15,10.15s-10.15-4.51-10.15-10.15V38.71c0-5.83,6.01-10.9,11.84-10.9,6.58-.19,11.46,3.57,15.03,9.02l57.5,93.58V36.64c0-5.64,4.51-10.15,9.96-10.15s10.15,4.51,10.15,10.15v118.01c0,7.14-6.39,12.03-11.65,12.03-7.89-.19-12.03-4.51-15.41-10.15l-57.13-92.26v94.71Z"/><path class="b" d="M650.17,65.02c0-6.76,3.01-13.15,8.08-17.48l14.84-12.4c4.89-4.13,10.9-6.39,17.1-6.39h37.58c10.33,0,18.79,8.46,18.79,18.79v17.48c0,5.64-4.51,10.15-10.15,10.15s-10.15-4.51-10.15-10.15v-15.97h-34.76c-2.44,0-4.7,.75-6.58,2.25l-11.84,10.15c-1.88,1.69-3.01,4.13-3.01,6.58v60.88c0,2.44,1.13,4.89,3.01,6.58l9.21,7.89c1.88,1.5,4.13,2.44,6.39,2.44l37.39-.19v-23.3c0-5.64,4.7-10.15,10.15-10.15s10.15,4.51,10.15,10.15v24.62c0,10.33-8.46,18.79-18.79,18.79l-39.84,.19c-6.39,0-12.4-2.26-17.29-6.2l-12.03-10.15c-5.26-4.32-8.27-10.9-8.27-17.48V65.02Z"/><path class="b" d="M861.94,158.03c-4.89,4.89-11.46,7.52-18.23,7.52h-21.99c-6.76,0-13.34-2.63-18.23-7.52l-7.52-7.52c-4.89-4.7-7.52-11.27-7.52-18.23v-36.83c0-6.76,2.63-13.34,7.52-18.23l7.52-7.52c4.89-4.7,11.46-7.52,18.23-7.52h21.99c6.77,0,13.34,2.82,18.23,7.52l7.52,7.52c4.7,4.89,7.52,11.46,7.52,18.23v36.83c0,6.95-2.82,13.53-7.52,18.23l-7.52,7.52Zm-7.52-20.29c1.88-1.88,2.82-4.32,2.82-6.95v-33.82c0-2.63-.94-5.07-2.82-6.77-1.69-1.88-3.57-3.76-5.45-5.45-1.69-1.88-4.13-2.82-6.76-2.82h-18.98c-2.63,0-5.07,.94-6.76,2.82-1.88,1.69-3.76,3.57-5.45,5.45-1.88,1.69-2.82,4.13-2.82,6.77v33.82c0,2.63,.94,5.07,2.82,6.95,1.69,1.69,3.57,3.57,5.45,5.26,1.69,1.88,4.13,2.82,6.76,2.82h18.98c2.63,0,5.07-.94,6.76-2.82,1.88-1.69,3.76-3.57,5.45-5.26Z"/><path class="b" d="M971.31,62.39c6.76,0,13.34,2.63,18.23,7.52l7.52,7.33c4.7,4.89,7.52,11.27,7.52,18.23v62.01c0,5.45-4.51,9.96-9.96,9.96s-9.77-4.51-9.77-9.96v-60.51c0-2.63-1.13-5.07-2.82-6.95-1.69-1.69-3.57-3.57-5.45-5.26-1.69-1.88-4.13-2.82-6.76-2.82h-28.75v75.92c0,5.45-4.32,9.96-9.77,9.96s-9.96-4.51-9.96-9.96V72.91c0-5.83,4.89-10.52,10.71-10.52h39.27Z"/><path class="b" d="M1101.53,62.39c6.76,0,13.34,2.63,18.23,7.52l7.52,7.33c4.7,4.89,7.52,11.27,7.52,18.23v62.01c0,5.45-4.51,9.96-9.96,9.96s-9.77-4.51-9.77-9.96v-60.51c0-2.63-1.13-5.07-2.82-6.95-1.69-1.69-3.57-3.57-5.45-5.26-1.69-1.88-4.13-2.82-6.76-2.82h-28.75v75.92c0,5.45-4.32,9.96-9.77,9.96s-9.96-4.51-9.96-9.96V72.91c0-5.83,4.89-10.52,10.71-10.52h39.27Z"/><path class="b" d="M1246.97,62.2c10.34,0,18.79,8.46,18.79,18.79v23.11c0,10.33-8.46,18.98-18.79,18.98l-48.67-.19v7.89c0,2.63,.94,5.07,2.82,6.76,1.69,1.88,3.57,3.76,5.26,5.45,1.88,1.69,4.32,2.82,6.95,2.82h32.7v-7.14c0-5.45,4.51-9.77,9.96-9.77s9.77,4.32,9.77,9.77v7.89c0,10.52-8.46,18.79-18.79,18.79h-37.96c-5.07,0-9.96-1.88-13.53-5.45l-11.28-11.27c-3.57-3.57-5.64-8.64-5.64-13.72v-42.28c0-5.07,2.07-9.96,5.64-13.53l11.28-11.27c3.57-3.57,8.46-5.64,13.53-5.64h37.96Zm-48.67,41.15h47.73v-21.61h-32.7c-2.63,0-5.07,1.13-6.95,2.82-1.69,1.88-3.57,3.76-5.26,5.45-1.88,1.88-2.82,4.32-2.82,6.76v6.58Z"/><path class="b" d="M1371.74,62.2c11.65,0,18.79,8.27,18.79,18.79v7.89c0,5.45-4.32,9.77-9.77,9.77s-9.96-4.32-9.96-9.77v-6.95h-30.07c-3.38,0-6.76,1.32-9.21,3.76-1.13,1.13-2.25,2.25-3.38,3.38-2.44,2.44-3.76,5.83-3.76,9.21v31c0,3.38,1.32,6.58,3.76,9.02,1.13,1.13,2.25,2.44,3.38,3.57,2.44,2.44,5.83,3.76,9.21,3.76h30.07v-10.9c0-5.45,4.51-9.96,9.96-9.96s9.77,4.51,9.77,9.96v11.65c0,12.4-9.77,18.79-18.79,18.79l-33.82,.19c-6.95,0-13.34-2.82-18.23-7.52l-7.52-7.52c-4.89-4.88-7.52-11.46-7.52-18.23v-36.64c0-6.95,2.63-13.34,7.52-18.23l7.52-7.52c4.89-4.89,11.27-7.52,18.23-7.52h33.82Z"/><path class="b" d="M1466.07,81.93v63.7h12.78c5.45,0,9.96,4.32,9.96,9.77s-4.51,9.96-9.96,9.96h-13.72c-10.52,0-18.79-8.46-18.79-18.79V81.93h-7.33c-5.45,0-9.96-4.32-9.96-9.77s4.51-9.96,9.96-9.96h7.33v-13.91c0-5.45,4.32-9.77,9.77-9.77s9.96,4.32,9.96,9.77v13.91h15.03c5.45,0,9.77,4.51,9.77,9.96s-4.32,9.77-9.77,9.77h-15.03Z"/></svg>